<svg xmlns="http://www.w3.org/2000/svg" viewBox="0 0 57.92 54.02"><defs><style>.cls-1{fill:#0a71b3;}</style></defs><title>favorite_outline_icon</title><g id="Layer_2" data-name="Layer 2"><g id="Layer_1-2" data-name="Layer 1"><path class="cls-1" d="M57.48,16.21C56.64,7,50.13.34,42,.34A15.43,15.43,0,0,0,28.8,7.94,14.83,14.83,0,0,0,15.93.34C7.78.34,1.28,7,.44,16.21a16.14,16.14,0,0,0,.49,6A25.77,25.77,0,0,0,8.85,35.46L28.79,53.55,49.07,35.46A25.9,25.9,0,0,0,57,22.24a16.65,16.65,0,0,0,.49-6Zm-2.63,5.52a23.65,23.65,0,0,1-7.26,12.09L28.8,50.59,10.33,33.83a23.72,23.72,0,0,1-7.26-12.1,14.32,14.32,0,0,1-.46-5.17l0-.11c.71-8,6.31-13.9,13.3-13.9a12.89,12.89,0,0,1,11.85,8.27l1,2.4,1-2.4A13.28,13.28,0,0,1,42,2.55c7,0,12.58,5.85,13.31,14a14.19,14.19,0,0,1-.45,5.18Z"/><path class="cls-1" d="M28.79,54l-.23-.21L8.62,35.71a26.18,26.18,0,0,1-8-13.39A16.65,16.65,0,0,1,.1,16.15C1,6.8,7.61,0,15.93,0A15.17,15.17,0,0,1,28.81,7.29,15.81,15.81,0,0,1,42,0c8.32,0,15,6.8,15.83,16.17a17,17,0,0,1-.49,6.15,26.31,26.31,0,0,1-8,13.4ZM15.93.69C8,.69,1.6,7.23.78,16.24a16.22,16.22,0,0,0,.48,5.92,25.43,25.43,0,0,0,7.82,13L28.79,53.09,48.84,35.21a25.61,25.61,0,0,0,7.82-13,16.33,16.33,0,0,0,.48-5.9v0C56.32,7.23,50,.69,42,.69A15.14,15.14,0,0,0,29.1,8.12l-.3.5-.3-.5A14.5,14.5,0,0,0,15.93.69ZM28.8,51.05l-.23-.2L10.1,34.08A24,24,0,0,1,2.73,21.81a15.1,15.1,0,0,1-.46-5.29l0-.12C3,8.18,8.76,2.2,15.93,2.2A13.24,13.24,0,0,1,28.1,10.68l.7,1.66.69-1.66A13.64,13.64,0,0,1,42,2.2c7.17,0,12.91,6,13.66,14.32a14.83,14.83,0,0,1-.47,5.29h0a24,24,0,0,1-7.35,12.27ZM15.93,2.89C9.12,2.89,3.67,8.61,3,16.48l0,.13a14.4,14.4,0,0,0,.45,5,23.33,23.33,0,0,0,7.16,11.92L28.8,50.13,47.37,33.57a23.36,23.36,0,0,0,7.14-11.92h0a14.53,14.53,0,0,0,.46-5c-.72-8-6.17-13.72-13-13.72A13,13,0,0,0,30.13,11L28.8,14.1,27.46,11A12.56,12.56,0,0,0,15.93,2.89Z"/></g></g></svg>