<svg xmlns="http://www.w3.org/2000/svg" xmlns:xlink="http://www.w3.org/1999/xlink" viewBox="0 0 61.22 56.82"><defs><style>.cls-1{fill:#0a71b3;}</style><symbol id="map" data-name="map" viewBox="0 0 61.22 56.82"><path class="cls-1" d="M60.42.55a1.1,1.1,0,0,0-1-.15L39.91,6.91,21.51,2.57c-.05,0-.1,0-.14,0a1.37,1.37,0,0,0-.35,0L1.2,7A1.09,1.09,0,0,0,.34,8.05V55.37a1.08,1.08,0,0,0,.42.86,1.08,1.08,0,0,0,.69.25,1.81,1.81,0,0,0,.23,0l19.6-4.35,18.49,3.26.2,0a1,1,0,0,0,.38-.08h0l19.81-7.7a1.11,1.11,0,0,0,.71-1V1.45a1.13,1.13,0,0,0-.46-.9ZM2.55,8.93,20.15,5V50.09L2.55,54ZM22.36,5l16.5,3.88V53l-16.5-2.91ZM58.67,45.82l-17.6,6.84V8.84L58.67,3Zm0,0"/><path class="cls-1" d="M1.45,56.82a1.4,1.4,0,0,1-.91-.32A1.43,1.43,0,0,1,0,55.37V8.05A1.45,1.45,0,0,1,1.13,6.64l19.81-4.4a1.26,1.26,0,0,1,.43,0h.05l.16,0L39.9,6.55,59.32.08a1.44,1.44,0,0,1,1.3.19h0a1.44,1.44,0,0,1,.6,1.17V46.57a1.47,1.47,0,0,1-.92,1.35L40.41,55.65a1.47,1.47,0,0,1-.69.05L21.29,52.45,1.76,56.78A1.15,1.15,0,0,1,1.45,56.82ZM21.16,2.9h-.07L1.28,7.31a.77.77,0,0,0-.59.74V55.37a.76.76,0,0,0,.92.74l19.66-4.37.07,0L39.83,55a.8.8,0,0,0,.4,0l.07,0,19.75-7.68a.77.77,0,0,0,.48-.71V1.45a.76.76,0,0,0-.31-.62.73.73,0,0,0-.68-.1L39.93,7.26l-.1,0L21.43,2.91h-.1ZM2.2,54.43V8.66l.27-.06,18-4V50.37l-.27.06ZM2.89,9.21V53.57l16.92-3.75V5.45ZM39.21,53.37l-17.2-3V4.6l17.2,4.05ZM22.7,49.76l15.82,2.79V9.19L22.7,5.47Zm18,3.41V8.59L41,8.51,59,2.49V46.05l-.22.09Zm.68-44.08V52.16l16.92-6.58V3.45Z"/></symbol></defs><title>map_icon</title><g id="Layer_2" data-name="Layer 2"><g id="Layer_1-2" data-name="Layer 1"><use width="61.22" height="56.82" xlink:href="#map"/></g></g></svg>