<svg xmlns="http://www.w3.org/2000/svg" viewBox="0 0 54.29 65.15"><defs><style>.cls-1{fill:#0a71b3;}</style></defs><title>notifications_icon</title><g id="Layer_2" data-name="Layer 2"><g id="Layer_1-2" data-name="Layer 1"><path class="cls-1" d="M52.93,57H1.36A1.35,1.35,0,0,1,.19,55l4.67-7.77A23.09,23.09,0,0,0,8.14,35.31V28.5a19,19,0,0,1,38,0v6.81a23.09,23.09,0,0,0,3.28,11.87L54.1,55a1.35,1.35,0,0,1-1.17,2ZM3.76,54.29H50.54L47.1,48.57a25.79,25.79,0,0,1-3.67-13.26V28.5a16.29,16.29,0,1,0-32.57,0v6.81A25.7,25.7,0,0,1,7.18,48.57Z"/><path class="cls-1" d="M31.22,12.21a1.35,1.35,0,0,1-1.36-1.35V5.43a2.72,2.72,0,1,0-5.43,0v5.43a1.36,1.36,0,0,1-2.71,0V5.43a5.43,5.43,0,1,1,10.85,0v5.43A1.34,1.34,0,0,1,31.22,12.21Z"/><path class="cls-1" d="M27.15,65.15A6.78,6.78,0,0,1,21.28,55a1.36,1.36,0,1,1,2.34,1.37,4.07,4.07,0,1,0,7.6,2,4,4,0,0,0-.55-2A1.36,1.36,0,0,1,33,55a6.78,6.78,0,0,1-5.87,10.19Z"/></g></g></svg>