<svg xmlns="http://www.w3.org/2000/svg" viewBox="0 0 58.26 60.32"><defs><style>.cls-1{fill:#0a71b3;}</style></defs><title>share_icon</title><g id="Layer_2" data-name="Layer 2"><g id="Layer_1-2" data-name="Layer 1"><path class="cls-1" d="M45.65,35.09a12.57,12.57,0,0,0-10.06,5l-11.2-3.79a12.45,12.45,0,0,0-.62-10.3L35.6,20.19a12.55,12.55,0,1,0-1.42-2.37l-12,5.93a12.61,12.61,0,1,0,.91,15.08l11,3.73a12.6,12.6,0,1,0,11.5-7.47Zm0-32.34a9.86,9.86,0,1,1-9.86,9.86A9.87,9.87,0,0,1,45.65,2.75Zm-33,39a9.86,9.86,0,1,1,9.86-9.85A9.86,9.86,0,0,1,12.61,41.75Zm33,15.82a9.86,9.86,0,1,1,9.86-9.86A9.88,9.88,0,0,1,45.65,57.57Z"/></g></g></svg>