<svg xmlns="http://www.w3.org/2000/svg" viewBox="0 0 61.22 61.22"><defs><style>.cls-1{fill:#0a71b3;}</style></defs><title>weather_icon</title><g id="Layer_2" data-name="Layer 2"><g id="Layer_1-2" data-name="Layer 1"><path class="cls-1" d="M30.61,46.69A16.08,16.08,0,1,1,46.69,30.61,16.09,16.09,0,0,1,30.61,46.69Zm0-30.44A14.36,14.36,0,1,0,45,30.61,14.37,14.37,0,0,0,30.61,16.25Z"/><path class="cls-1" d="M30.61,47A16.43,16.43,0,1,1,47,30.61,16.44,16.44,0,0,1,30.61,47Zm0-32.16A15.74,15.74,0,1,0,46.35,30.61,15.75,15.75,0,0,0,30.61,14.88Zm0,30.44A14.71,14.71,0,1,1,45.32,30.61,14.72,14.72,0,0,1,30.61,45.32Zm0-28.73a14,14,0,1,0,14,14A14,14,0,0,0,30.61,16.59Z"/><path class="cls-1" d="M30.61,47A16.43,16.43,0,1,1,47,30.61,16.44,16.44,0,0,1,30.61,47Zm0-32.16A15.74,15.74,0,1,0,46.35,30.61,15.75,15.75,0,0,0,30.61,14.88Zm0,30.44A14.71,14.71,0,1,1,45.32,30.61,14.72,14.72,0,0,1,30.61,45.32Zm0-28.73a14,14,0,1,0,14,14A14,14,0,0,0,30.61,16.59Z"/><path class="cls-1" d="M30.61,47.38A16.77,16.77,0,1,1,47.38,30.61,16.79,16.79,0,0,1,30.61,47.38ZM14.53,30.61a16.08,16.08,0,0,0,32.16,0,16.08,16.08,0,0,1-32.16,0ZM30.61,15.22A15.39,15.39,0,1,0,46,30.61,15.41,15.41,0,0,0,30.61,15.22Zm0,30.44a15,15,0,1,1,15-15A15.07,15.07,0,0,1,30.61,45.66Zm-14.36-15a14.36,14.36,0,0,0,28.72,0,14.36,14.36,0,0,1-28.72,0ZM30.61,16.94A13.67,13.67,0,1,0,44.28,30.61,13.68,13.68,0,0,0,30.61,16.94Z"/><path class="cls-1" d="M30.61,9.24a.86.86,0,0,1-.86-.85V1.54a.86.86,0,0,1,1.72,0V8.39a.86.86,0,0,1-.86.85Z"/><path class="cls-1" d="M30.61,9.58a1.19,1.19,0,0,1-1.2-1.19V1.54a1.21,1.21,0,0,1,2.41,0V8.39A1.2,1.2,0,0,1,30.61,9.58Zm0-8.55a.52.52,0,0,0-.51.51V8.39a.52.52,0,0,0,1,0V1.54A.52.52,0,0,0,30.61,1Z"/><path class="cls-1" d="M30.61,9.58a1.19,1.19,0,0,1-1.2-1.19V1.54a1.21,1.21,0,0,1,2.41,0V8.39A1.2,1.2,0,0,1,30.61,9.58Zm0-8.55a.52.52,0,0,0-.51.51V8.39a.52.52,0,0,0,1,0V1.54A.52.52,0,0,0,30.61,1Z"/><path class="cls-1" d="M30.61,9.93a1.55,1.55,0,0,1-1.55-1.54V1.54a1.55,1.55,0,0,1,3.1,0V8.39A1.55,1.55,0,0,1,30.61,9.93Zm-.86-1.54a.86.86,0,0,0,.86.85A.86.86,0,0,1,29.75,8.39Zm.86-7a.17.17,0,0,0-.17.16V8.39c0,.19.34.18.34,0V1.54A.16.16,0,0,0,30.61,1.38Zm.86.16v0ZM30.61.69a.86.86,0,0,0-.86.85A.86.86,0,0,1,30.61.69Z"/><path class="cls-1" d="M30.61,60.54a.87.87,0,0,1-.86-.86V52.84a.86.86,0,0,1,1.72,0v6.84a.87.87,0,0,1-.86.86Z"/><path class="cls-1" d="M30.61,60.88a1.2,1.2,0,0,1-1.2-1.2V52.84a1.21,1.21,0,0,1,2.41,0v6.84A1.21,1.21,0,0,1,30.61,60.88Zm0-8.55a.51.51,0,0,0-.51.51v6.84a.51.51,0,0,0,.51.51.52.52,0,0,0,.52-.51V52.84A.51.51,0,0,0,30.61,52.33Z"/><path class="cls-1" d="M30.61,60.88a1.2,1.2,0,0,1-1.2-1.2V52.84a1.21,1.21,0,0,1,2.41,0v6.84A1.21,1.21,0,0,1,30.61,60.88Zm0-8.55a.51.51,0,0,0-.51.51v6.84a.51.51,0,0,0,.51.51.52.52,0,0,0,.52-.51V52.84A.51.51,0,0,0,30.61,52.33Z"/><path class="cls-1" d="M30.61,61.22a1.55,1.55,0,0,1-1.55-1.54V52.84a1.55,1.55,0,1,1,3.1,0v6.84A1.55,1.55,0,0,1,30.61,61.22Zm-.86-1.54a.86.86,0,0,0,1.72,0v0a.86.86,0,0,1-1.72,0Zm.86-7a.18.18,0,0,0-.17.17v6.84c0,.19.34.18.34,0V52.84A.17.17,0,0,0,30.61,52.67Z"/><path class="cls-1" d="M8.39,31.47H1.54a.86.86,0,0,1,0-1.72H8.39a.86.86,0,0,1,0,1.72Z"/><path class="cls-1" d="M8.39,31.82H1.54a1.21,1.21,0,0,1,0-2.41H8.39a1.21,1.21,0,0,1,0,2.41ZM1.54,30.1a.51.51,0,0,0-.51.51.53.53,0,0,0,.51.52H8.39a.52.52,0,0,0,0-1Z"/><path class="cls-1" d="M8.39,31.82H1.54a1.21,1.21,0,0,1,0-2.41H8.39a1.21,1.21,0,0,1,0,2.41ZM1.54,30.1a.51.51,0,0,0-.51.51.53.53,0,0,0,.51.52H8.39a.52.52,0,0,0,0-1Z"/><path class="cls-1" d="M8.39,32.16H1.54a1.55,1.55,0,0,1,0-3.1H8.39a1.55,1.55,0,0,1,0,3.1ZM.69,30.61a.85.85,0,0,0,.85.86H8.39a.85.85,0,0,0,.85-.86.85.85,0,0,1-.85.86H1.54A.86.86,0,0,1,.69,30.61Zm.85-.17a.17.17,0,0,0-.16.17.17.17,0,0,0,.16.17H8.39a.16.16,0,0,0,.16-.17.17.17,0,0,0-.16-.17Z"/><path class="cls-1" d="M59.68,31.47H52.84a.86.86,0,1,1,0-1.72h6.84a.86.86,0,0,1,0,1.72Z"/><path class="cls-1" d="M59.68,31.82H52.84a1.21,1.21,0,0,1,0-2.41h6.84a1.21,1.21,0,0,1,0,2.41ZM52.84,30.1a.52.52,0,0,0,0,1h6.84a.52.52,0,0,0,.51-.52.51.51,0,0,0-.51-.51Z"/><path class="cls-1" d="M59.68,31.82H52.84a1.21,1.21,0,0,1,0-2.41h6.84a1.21,1.21,0,0,1,0,2.41ZM52.84,30.1a.52.52,0,0,0,0,1h6.84a.52.52,0,0,0,.51-.52.51.51,0,0,0-.51-.51Z"/><path class="cls-1" d="M59.68,32.16H52.84a1.55,1.55,0,0,1,0-3.1h6.84a1.55,1.55,0,0,1,0,3.1ZM52,30.61a.86.86,0,0,0,.86.86h6.84a.86.86,0,0,0,.86-.86.87.87,0,0,1-.86.86H52.84A.86.86,0,0,1,52,30.61Zm.86-.17a.18.18,0,0,0-.17.17.17.17,0,0,0,.17.17h6.84a.17.17,0,1,0,0-.34Z"/><path class="cls-1" d="M14.9,15.75a.85.85,0,0,1-.61-.25L9.45,10.67a.86.86,0,1,1,1.22-1.22l4.83,4.84a.85.85,0,0,1,0,1.21.82.82,0,0,1-.6.25Z"/><path class="cls-1" d="M14.9,16.09a1.19,1.19,0,0,1-.86-.35L9.21,10.91a1.2,1.2,0,0,1,1.7-1.7l4.84,4.84a1.15,1.15,0,0,1,.35.84,1.2,1.2,0,0,1-1.2,1.2ZM10.06,9.54a.53.53,0,0,0-.37.15.52.52,0,0,0,0,.73l4.84,4.83a.46.46,0,0,0,.73,0,.49.49,0,0,0,.15-.36.51.51,0,0,0-.15-.36L10.42,9.69A.51.51,0,0,0,10.06,9.54Z"/><path class="cls-1" d="M14.9,16.09a1.19,1.19,0,0,1-.86-.35L9.21,10.91a1.2,1.2,0,0,1,1.7-1.7l4.84,4.84a1.15,1.15,0,0,1,.35.84,1.2,1.2,0,0,1-1.2,1.2ZM10.06,9.54a.53.53,0,0,0-.37.15.52.52,0,0,0,0,.73l4.84,4.83a.46.46,0,0,0,.73,0,.49.49,0,0,0,.15-.36.51.51,0,0,0-.15-.36L10.42,9.69A.51.51,0,0,0,10.06,9.54Z"/><path class="cls-1" d="M14.9,16.44A1.51,1.51,0,0,1,13.8,16L9,11.15A1.55,1.55,0,1,1,11.15,9L16,13.8a1.54,1.54,0,0,1,.45,1.09,1.55,1.55,0,0,1-1.54,1.55Zm.59-.93h0Zm.27-.62a.87.87,0,0,1-.25.6A.87.87,0,0,0,15.76,14.89Zm-5.7-5a.17.17,0,0,0-.12,0,.16.16,0,0,0,0,.24L14.78,15a.2.2,0,0,0,.12.08h0s.06,0,.11-.08a.14.14,0,0,0,.06-.12.16.16,0,0,0-.05-.11L10.18,9.94A.18.18,0,0,0,10.06,9.89Zm5.45,4.41a.83.83,0,0,1,.25.59A.83.83,0,0,0,15.51,14.3ZM9.41,9.5a.84.84,0,0,0-.07,1A.84.84,0,0,1,9.41,9.5Zm.26-.21a.8.8,0,0,0-.21.15A.8.8,0,0,1,9.67,9.29Zm.87.06a.39.39,0,0,1,.1.08A.39.39,0,0,0,10.54,9.35Z"/><path class="cls-1" d="M51.17,52a.82.82,0,0,1-.61-.25l-4.84-4.84a.86.86,0,0,1,1.21-1.21l4.84,4.84a.85.85,0,0,1,0,1.21.83.83,0,0,1-.6.25Z"/><path class="cls-1" d="M51.17,52.37a1.25,1.25,0,0,1-.86-.35l-4.83-4.84a1.21,1.21,0,0,1,0-1.7,1.23,1.23,0,0,1,1.71,0L52,50.31a1.21,1.21,0,0,1-.85,2.06Zm-4.84-6.56A.51.51,0,0,0,46,46a.54.54,0,0,0,0,.73l4.84,4.84a.53.53,0,0,0,.73,0,.52.52,0,0,0,0-.73L46.69,46A.51.51,0,0,0,46.33,45.81Z"/><path class="cls-1" d="M51.17,52.37a1.25,1.25,0,0,1-.86-.35l-4.83-4.84a1.21,1.21,0,0,1,0-1.7,1.23,1.23,0,0,1,1.71,0L52,50.31a1.21,1.21,0,0,1-.85,2.06Zm-4.84-6.56A.51.51,0,0,0,46,46a.54.54,0,0,0,0,.73l4.84,4.84a.53.53,0,0,0,.73,0,.52.52,0,0,0,0-.73L46.69,46A.51.51,0,0,0,46.33,45.81Z"/><path class="cls-1" d="M51.17,52.71a1.58,1.58,0,0,1-1.1-.45l-4.84-4.84a1.55,1.55,0,0,1,2.19-2.19l4.84,4.84a1.55,1.55,0,0,1-1.09,2.64Zm-.53-.86a.89.89,0,0,0,1.08,0A.87.87,0,0,1,50.64,51.85Zm-4.31-5.69a.21.21,0,0,0-.13.05.17.17,0,0,0,0,.24L51,51.29a.2.2,0,0,0,.25,0,.17.17,0,0,0,0-.24l-4.83-4.83A.18.18,0,0,0,46.33,46.16Zm-.57-.48,0,0Z"/><path class="cls-1" d="M10.06,52a.86.86,0,0,1-.61-1.46l4.84-4.84a.86.86,0,0,1,1.21,0,.85.85,0,0,1,0,1.21l-4.83,4.84a.85.85,0,0,1-.61.25Z"/><path class="cls-1" d="M10.06,52.37a1.21,1.21,0,0,1-.85-2.06l4.84-4.83a1.22,1.22,0,0,1,1.7,0,1.22,1.22,0,0,1,0,1.71L10.91,52A1.23,1.23,0,0,1,10.06,52.37Zm4.84-6.55a.5.5,0,0,0-.37.14L9.69,50.8a.52.52,0,0,0,0,.73.53.53,0,0,0,.73,0l4.84-4.84a.51.51,0,0,0,.15-.36.51.51,0,0,0-.15-.37A.5.5,0,0,0,14.9,45.82Z"/><path class="cls-1" d="M10.06,52.37a1.21,1.21,0,0,1-.85-2.06l4.84-4.83a1.22,1.22,0,0,1,1.7,0,1.22,1.22,0,0,1,0,1.71L10.91,52A1.23,1.23,0,0,1,10.06,52.37Zm4.84-6.55a.5.5,0,0,0-.37.14L9.69,50.8a.52.52,0,0,0,0,.73.53.53,0,0,0,.73,0l4.84-4.84a.51.51,0,0,0,.15-.36.51.51,0,0,0-.15-.37A.5.5,0,0,0,14.9,45.82Z"/><path class="cls-1" d="M10.06,52.71A1.52,1.52,0,0,1,9,52.26a1.55,1.55,0,0,1,0-2.19l4.84-4.84a1.58,1.58,0,0,1,2.19,0,1.56,1.56,0,0,1,0,2.19l-4.84,4.84A1.54,1.54,0,0,1,10.06,52.71Zm-.58-.91a.88.88,0,0,0,1.14,0A.88.88,0,0,1,9.48,51.8Zm5.42-5.64a.21.21,0,0,0-.13.05L9.94,51a.18.18,0,0,0,0,.25.18.18,0,0,0,.24,0L15,46.45a.21.21,0,0,0,.05-.12.17.17,0,0,0-.05-.12A.17.17,0,0,0,14.9,46.16Zm.86.17a.87.87,0,0,1-.24.59A.87.87,0,0,0,15.76,46.33Zm-.25-.6a.84.84,0,0,1,.25.6A.84.84,0,0,0,15.51,45.73Zm-.61-.26a.76.76,0,0,1,.21,0,.83.83,0,0,0-.27,0Z"/><path class="cls-1" d="M46.33,15.75a.86.86,0,0,1-.61-1.46l4.84-4.84a.86.86,0,1,1,1.21,1.22L46.93,15.5a.82.82,0,0,1-.6.25Z"/><path class="cls-1" d="M46.33,16.09a1.2,1.2,0,0,1-.86-2l4.84-4.84A1.21,1.21,0,1,1,52,10.91l-4.84,4.83A1.19,1.19,0,0,1,46.33,16.09Zm4.83-6.55a.51.51,0,0,0-.36.15L46,14.53a.53.53,0,0,0,0,.72.52.52,0,0,0,.73,0l4.84-4.83a.52.52,0,0,0,0-.73A.51.51,0,0,0,51.16,9.54Z"/><path class="cls-1" d="M46.33,16.09a1.2,1.2,0,0,1-.86-2l4.84-4.84A1.21,1.21,0,1,1,52,10.91l-4.84,4.83A1.19,1.19,0,0,1,46.33,16.09Zm4.83-6.55a.51.51,0,0,0-.36.15L46,14.53a.53.53,0,0,0,0,.72.52.52,0,0,0,.73,0l4.84-4.83a.52.52,0,0,0,0-.73A.51.51,0,0,0,51.16,9.54Z"/><path class="cls-1" d="M46.33,16.44A1.57,1.57,0,0,1,45.24,16a1.55,1.55,0,0,1,0-2.18L50.07,9a1.55,1.55,0,1,1,2.19,2.19L47.42,16A1.5,1.5,0,0,1,46.33,16.44Zm-.6-.94h0a.87.87,0,0,0,1,.13A.85.85,0,0,1,45.73,15.5Zm5.43-5.61a.18.18,0,0,0-.12,0l-4.83,4.84a.15.15,0,0,0,0,.23.16.16,0,0,0,.23,0l4.85-4.83a.18.18,0,0,0,0-.24A.16.16,0,0,0,51.16,9.89Zm.66-.39a.87.87,0,0,1,0,1.05A.87.87,0,0,0,51.82,9.5Zm-1-.24a.79.79,0,0,0-.29.17A1.05,1.05,0,0,1,50.86,9.26Z"/></g></g></svg>